<?xml version="1.0" encoding="utf-8"?>
<!-- Generator: Adobe Illustrator 23.0.0, SVG Export Plug-In . SVG Version: 6.00 Build 0)  -->
<svg version="1.1" id="Barrel" xmlns="http://www.w3.org/2000/svg" xmlns:xlink="http://www.w3.org/1999/xlink" x="0px" y="0px"
	 viewBox="0 0 755.3 971" style="enable-background:new 0 0 755.3 971;" xml:space="preserve">
<style type="text/css">
	.st0{fill:#002527;}
</style>
<g>
	<path class="st0" d="M146.9,489c2.2-63.6,14.9-124.8,52.1-180.7c1.1-1.6,2.3-3.2,3.2-4.8c22.3-38.5,56.8-57.9,107.2-55.1
		c21.5,1.2,43.3-1.5,65-2.2c3.9-0.1,9.2-1.6,11.2,2.9c1.6,3.4-2.3,5.9-4.1,8.6c-91.5,129.6-96.2,265.5-37.1,405.7
		c7.3,17.4,17.8,33.8,29.5,49.4c6.5,8.7,4.6,12.3-7.5,12.3c-40.9,0.2-81.4-3.3-121.8-8c-10.2-1.2-15.5-7.6-21.1-13.7
		c-39.9-43.1-60.3-93.6-70.3-147.7C149.1,533.7,146.6,511.5,146.9,489z"/>
	<path class="st0" d="M344.2,493.7c2.7-78,17.7-150.5,67.2-214.6c2.1-2.7,4.5-5.2,6.4-8c12.5-18.1,29.6-25.9,54.5-22.1
		c28.6,4.4,57.9,4.9,86.5,10.2c3.3,0.6,8.2-0.4,9,4c0.6,3.2-3.1,4.6-5.5,6.2c-26.5,17.4-42.5,41.8-53.2,68.2
		C467.9,438.7,468.3,540,512,640.5c10.5,24.1,26.2,45.7,50,61.9c2.7,1.8,7.8,3.7,5.5,7.2c-1.4,2.2-6.3,3.3-9.7,3.7
		c-27.8,3.2-55.6,6.1-83.5,9c-3.1,0.3-6.6-0.3-9.5,0.5c-28.6,8-43.6-6.1-57.3-25.3c-36.1-50.4-53.5-105.9-60.1-164.6
		C345.7,519.1,345,505.1,344.2,493.7z"/>
	<path class="st0" d="M183.8,266.1c-8.6,12.7-17.8,24.1-24.5,36.5C88.2,434.4,90,564.9,168.7,693.9c2,3.4,8,6.6,4.1,10.8
		c-2.8,3-8,0.2-12.1,0C101.1,702,67.8,669.2,47.3,625C2.9,528.9,3.7,432.8,52.1,337.6c1.3-2.5,3-4.9,4.4-7.4
		C82.6,285.3,125.3,265.2,183.8,266.1z"/>
	<path class="st0" d="M569,671.4c34,5.7,48.3,0.1,66.3-25.3c19.3-27.4,28.7-57.9,34-89.4c10.9-65.7,9-130.7-14.6-194.5
		c-4.5-12-10.5-23.4-17.9-34.2c-14.4-20.7-32-36.5-63.6-28.4c11.8-26.9,53.8-37.5,83.4-21.7c18.6,9.9,31.5,24.6,41.9,41.1
		c24.9,39.5,35.9,82.4,40,126.8c5.9,63.8-0.1,126.5-28.2,186.3c-10,21.2-23,41-43.8,55.7C633.3,711.2,593.3,704.8,569,671.4z"/>
	<path class="st0" d="M585.3,552.4c-0.2-9.4,1.5-21,8.4-31.3c7.7-11.5,18.7-12.2,25.3-0.6c13.6,24,13.5,48.7-0.5,72.5
		c-6.4,11-16.9,10.5-24.3-0.4C586.2,581,585.2,567.9,585.3,552.4z"/>
</g>
</svg>
