<?xml version="1.0" encoding="utf-8"?>
<!-- Generator: Adobe Illustrator 23.0.0, SVG Export Plug-In . SVG Version: 6.00 Build 0)  -->
<svg version="1.1" id="Layer_1" xmlns="http://www.w3.org/2000/svg" xmlns:xlink="http://www.w3.org/1999/xlink" x="0px" y="0px"
	 viewBox="0 0 755.3 971" style="enable-background:new 0 0 755.3 971;" xml:space="preserve">
<style type="text/css">
	.st0{fill:#002527;}
	.st1{fill:#FEFEFE;}
</style>
<g id="Bottle">
	<g>
		<path class="st0" d="M377.9,968.7c-30.5,0-61.2-2.1-91.4-6.2c-24-3.3-36.5-6.1-43-13.1c-6.9-5.5-10.7-12.8-10.7-20.6V679.4h-0.6
			c0-20.8,0-41.6,0.1-62.4c0.1-55.1,0.2-112-0.4-168.1c-0.2-17.5,1.7-39.7,18-55.1c45.1-42.8,49-95.6,52.8-146.6l0.1-1.8
			c2.6-34.4,5.6-69.4,8.5-103.3c1.4-15.7,2.8-31.9,4.1-47.9c0.1-1.3,0.4-2.7,0.6-4c1-5.3,1.9-10.7-4.8-15.2
			c-11.2-7.4-8.3-16.1-3.8-25.9c0.8-1.8,1.8-3.5,2.8-5.2c4.2-7.3,8.5-14.9,0-24.5c-1.6-1.8-2.1-3.8-1.5-5.7
			c1.3-3.7,6.5-6.8,12.7-7.6C340,3.7,359,2.5,377.9,2.5c16.3,0,33,0.9,49.5,2.7c7.8,0.8,12.6,3,14.3,6.4c1.2,2.5,0.8,5.7-1.3,9.6
			c-3.1,5.9-0.9,11.2,1.2,16.4c0.8,1.8,1.5,3.8,2.1,5.7c0.3,1.2,0.7,2.5,1.1,3.8c3,10.1,6.1,20.5-5.7,29.4
			c-5.8,4.4-4.7,9.9-3.6,15.2c0.3,1.6,0.6,3.1,0.7,4.5c2.1,23.1,4.2,46.5,6.3,69.2c4.5,48.3,9.1,98.2,12.9,147.4
			c1.4,17.6,9.2,33.9,24,49.7c30.8,32.8,44.6,70.8,43.5,119.6c-2.2,100-2.6,201.7-3,300c-0.2,42.7-0.4,86.8-0.7,130.1
			c-0.3,36.1-9.3,45.1-51.1,50.6C438.4,966.7,407.9,968.7,377.9,968.7L377.9,968.7z"/>
		<path class="st0" d="M378.1,2.8c16.3,0,33,0.9,49.5,2.7c7.6,0.8,12.3,2.9,13.9,6.2c1.1,2.3,0.7,5.4-1.2,9.2
			c-3.2,6.1-0.9,11.5,1.2,16.8c0.8,1.8,1.5,3.7,2.1,5.6c0.4,1.3,0.7,2.5,1.1,3.8c3.1,10.4,6,20.1-5.5,28.8
			c-6.1,4.6-4.9,10.5-3.8,15.7c0.3,1.6,0.6,3,0.7,4.5c2.1,23,4.2,46.5,6.3,69.1c4.5,48.3,9.1,98.3,12.9,147.5
			c1.4,17.7,9.3,34.1,24.2,50c16.1,17.2,27.4,35.6,34.5,56.1c6.5,18.8,9.4,39.5,8.9,63.2c-2.2,100-2.6,201.7-3,300.1
			c-0.2,42.6-0.4,86.7-0.7,130.1c-0.1,19.4-2.9,29.6-9.7,36.4c-6.9,6.9-18.4,10.8-41,13.7c-30.1,4-60.6,6-90.5,6
			c-30.5,0-61.2-2.1-91.3-6.2c-23.8-3.3-36.3-6-42.8-12.9l0,0h-0.1c-6.7-5.4-10.4-12.5-10.4-20.2V679.9v-1h-0.6
			c0-20.7,0-41.6,0.1-61.9c0.1-55.1,0.2-112-0.4-168.1c-0.2-17.5,1.7-39.4,17.9-54.8c45.3-42.9,49.2-95.8,53-146.9l0.1-1.8
			c2.6-34.4,5.6-69.4,8.5-103.3c1.4-15.7,2.8-31.9,4.1-47.9c0.1-1.3,0.4-2.7,0.6-4c0.9-5.2,2-11-5-15.7c-10.8-7.2-8-15.7-3.6-25.3
			c0.8-1.7,1.8-3.5,2.8-5.2c4.3-7.5,8.7-15.2-0.1-25.1c-1.5-1.7-2-3.5-1.4-5.2c1.2-3.5,6.3-6.5,12.3-7.3
			C340.2,4,359.2,2.8,378.1,2.8 M378.1,1.8c-18.9,0-37.8,1.2-56.6,3.6c-9.7,1.2-16.9,8-11.5,14.2c10.2,11.6,1.4,20-2.8,29.2
			c-4.5,9.8-7.6,18.9,3.9,26.5c8.2,5.5,4.6,12.3,4,18.8c-4.2,50.4-8.9,100.8-12.6,151.2c-3.9,52.8-7.3,105-52.8,148.1
			c-15.5,14.7-18.4,35.1-18.2,55.5c0.8,77,0.3,154,0.3,230.9c0.2,0,0.4,0,0.6,0v248.9c0,8.2,4.2,15.7,10.8,21
			c6.7,7.2,19.3,9.9,43.3,13.2c30.5,4.2,61,6.2,91.5,6.2c30.2,0,60.4-2,90.6-6c42.3-5.6,51.3-14.7,51.5-51.1
			c1.1-143.4,0.5-286.8,3.7-430.2c1-45.1-10.3-84.4-43.6-120c-13.2-14.1-22.4-30.2-23.9-49.4C450.6,240.3,443.4,168.2,437,96
			c-0.6-6.5-4.5-13.9,2.7-19.3c13.6-10.2,7.9-22.3,4.7-33.6c-2-7.2-7.4-13.9-3.4-21.7c6-11.4-2.4-15.6-13.4-16.8
			C411.2,2.7,394.6,1.8,378.1,1.8L378.1,1.8z"/>
	</g>
</g>
<g id="Label">
	<ellipse class="st1" cx="380" cy="622.8" rx="114.8" ry="135.9"/>
</g>
</svg>
