<?xml version="1.0" encoding="utf-8"?>
<!-- Generator: Adobe Illustrator 23.0.0, SVG Export Plug-In . SVG Version: 6.00 Build 0)  -->
<svg version="1.1" xmlns="http://www.w3.org/2000/svg" xmlns:xlink="http://www.w3.org/1999/xlink" x="0px" y="0px"
	 viewBox="0 0 755.3 971" style="enable-background:new 0 0 755.3 971;" xml:space="preserve">
<style type="text/css">
	.st0{fill:#002527;}
</style>
<g id="Bucket_2_">
	<g id="Bucket">
		<g id="Bucket_1_">
			<path class="st0" d="M377.5,449.9c90.8,0,181.7,0.3,272.5-0.3c12.9-0.1,16.5,3.7,15,16.4c-8.9,71.1-17.5,142.1-25.6,213.3
				c-1.7,15.2-9.4,25.2-20.1,34.4c-51,44-110.8,67.4-176.5,75.5c-77.5,9.6-154,5.6-227.4-24.8c-33.1-13.7-63.1-32.6-89.2-57.5
				c-5.3-5.1-9.1-10.7-10-18.3c-8.6-74.5-17.1-149-26.5-223.3c-1.8-14.1,3.6-15.8,15.2-15.7c90.8,0.3,181.7,0.2,272.5,0.2
				C377.5,449.8,377.5,449.8,377.5,449.9z"/>
			<path class="st0" d="M377.9,872.3c72.8,0,145.6,0,218.3,0c17.9,0,19.5,1.9,17.4,20.1c-1.5,12.3-3,24.6-5,36.9
				c-4.1,24.6-22.5,41.5-46.8,41.6c-122.9,0.3-245.8,0.3-368.6,0c-24.1,0-42.4-15.7-47-39.8c-3.1-15.9-4.2-32.1-6.3-48.2
				c-1.3-10.3,5.7-10.5,12.6-10.5c23.2-0.1,46.3-0.1,69.5-0.1C274,872.3,326,872.3,377.9,872.3z"/>
			<path class="st0" d="M378.2,370c93.2,0,186.3,0.2,279.5-0.2c13.2-0.1,19.6,2.5,16.5,17.5c-2.3,10.7-2.8,21.8-3.6,32.7
				c-0.8,11.3-6.3,15.3-17.5,15.1c-30.3-0.6-60.5-0.2-90.8-0.2c-151.3,0-302.7,0-454,0c-23.9,0-22.7-0.3-24.5-20.8
				c-0.8-8.5-2.1-17-3.3-25.5c-2.4-16.6-1-18.5,15.4-18.5c79-0.1,158,0,236.9,0C347.9,370,363,370,378.2,370z"/>
			<path class="st0" d="M376.6,859c-73.7,0-147.5-0.3-221.2,0.2c-13.2,0.1-19.2-2.9-20.5-17.7c-3.1-34.7-8.4-69.1-12.6-103.7
				c-0.4-3.7-2-8.5,1.3-10.8c3.9-2.6,6.8,1.9,9.6,4.1c66.4,52.5,142.9,73.5,225.9,75.6c72.9,1.9,143.3-7.9,208.9-42.1
				c19.4-10.1,37.5-22.1,54.5-36.1c2.4-2,4.9-6,8.3-4.3c4.7,2.3,1.4,6.8,1.1,10.2c-4,36-8.5,72-12.1,108.1
				c-1.3,12.7-6.7,16.8-19.1,16.7C526,858.7,451.3,859,376.6,859z"/>
			<path class="st0" d="M734.5,447.4c17.7,0,22,4.3,20.4,19.7c-7.7,76-31.3,146-76.9,207.7c-5.9,8-12.6,15.4-19,23.1
				c-1.5,1.8-3.1,4.1-5.8,3.2c-3.7-1.3-2.3-4.6-2.1-7.3c1-12,3.6-22.7,11.3-33c38.4-51.4,59.1-110.3,69-173.4
				c1.3-8,5.8-18.2-8.9-20.6c-5.2-0.9-4.8-7.7-3.6-12.4C721.2,445,729.2,448.4,734.5,447.4z"/>
			<path class="st0" d="M102.8,706.7c-30-30.1-50.2-63.2-66.3-98.8C16.2,563.1,5.1,516,0.3,467.2c-0.7-6.8-0.9-14.2,6.2-17.6
				c7.9-3.8,16.8-3.5,24.8-0.4c5.9,2.2,5.8,15.8-0.5,17.8c-9.2,3-8.3,8.8-7.4,15.5c8.4,65.5,29.2,126.3,68.4,179.6
				C101.3,675,104.4,688.2,102.8,706.7z"/>
			<path class="st0" d="M337.1,353.4c-36.3,0-72.7,0-112.6,0c16.8-16.6,32.3-29.4,48.2-41.7c2.5-1.9,5.4-1.7,7.9,0
				c19.5,12.9,38.9,26,58.3,39C338.3,351.5,337.7,352.4,337.1,353.4z"/>
			<path class="st0" d="M165.7,354.2c-10.4,0-20.7,0.1-31.1-0.1c-7.4-0.1-8.3-3.5-3.3-8.6c10.3-10.4,20.9-20.7,31.2-31.1
				c4.6-4.6,8.8-4.2,13.6-0.1c8.3,7.1,16.9,13.8,25.1,20.9c3.3,2.9,9.5,4.9,6.8,10.8c-2.2,4.8-7,7.9-12.6,8.1
				C185.5,354.4,175.6,354.2,165.7,354.2z"/>
			<path class="st0" d="M704.8,457.1c0,7.6-0.4,15.3,0.1,22.9c0.7,11.3-4.3,15-15.1,14.9c-11.1-0.1-15.3-3.6-13.3-15.4
				c2.8-15.9,4.4-32,6.2-48.1c0.8-7.5,3.9-10.9,11.8-10.5c8.3,0.4,10.5,4.7,10.3,11.9C704.7,440.9,704.8,449,704.8,457.1z"/>
			<path class="st0" d="M50.3,458c0-8.5,0.1-17.1,0-25.6c-0.1-6.3,0.6-11.3,8.9-11.2c7.1,0.1,11.8,1.9,12.6,9.9
				c1.8,17,3.8,33.9,6.1,50.9c1.2,9.1-1.6,13.3-11.3,12.8c-8.6-0.4-17.7,1.2-16.5-12.6C50.8,474.1,50.2,466,50.3,458
				C50.3,458,50.3,458,50.3,458z"/>
		</g>
	</g>
	<g id="Bottle_1_">
		<g id="Bottle">
			<path class="st0" d="M397,356c-14.6,1.2-28.3,0.7-40.2-9.8c-6.1-5.4-8.3-9.1-2.9-16.3c10.7-14.1,22.9-26.7,35.3-39.1
				c5.3-5.3,8.8-4.9,10.5,2.8c4.3,19.3,11.1,37.5,22.3,53.8c3.6,5.2,1.8,8.2-4,8.5C410.9,356.3,403.8,356,397,356z"/>
			<path class="st0" d="M505.2,356.3c-13.3,0-26.5-0.7-39.7,0.2c-13.4,1-22.6-4.6-30.2-14.9c-13.4-18-20.4-38.6-23.9-60.6
				c-1.5-9.3,2.9-15.3,9.1-21.2c34.4-32.2,68.5-64.6,96.8-102.6c19.9-26.8,37.6-55.1,52.7-84.9c4.9-9.7,9.7-12.3,19.7-6.3
				c14.2,8.6,29,16.1,44,23.2c10,4.8,11.6,10,6.2,19.9c-27.5,50.1-47,103.3-58,159.5c-4.7,23.9-9,47.9-12.3,72
				c-1.7,12.4-7.9,16-19,15.8C535.5,356.1,520.4,356.3,505.2,356.3z M466.2,279.9c-0.3,21.5,15,37.8,35.7,38.3
				c20.6,0.4,37.2-16,37.3-36.8c0.1-21-14.5-36.3-35.2-36.9C482,244,466.4,258.5,466.2,279.9z"/>
			<path class="st0" d="M525.8,281.1c0,11.5-11,22.7-22.7,23c-12.3,0.3-23.6-10.9-23.6-23.4c0-12.2,10.3-22.5,22.5-22.6
				C514.9,257.9,525.8,268.4,525.8,281.1z"/>
		</g>
	</g>
</g>
<g id="Cap_2_">
	<g id="Cap_1_">
		<path id="Cap" class="st0" d="M679.2,45.6c-5,11-9.5,24.2-19,34.5c-4,4.3-9.7,2.6-14.6,0.1c-18.4-9.8-36.8-19.6-55.3-29.3
			c-8.3-4.4-10.1-10.6-5.9-19c20.5-40.9,17-36.5,50.9-18.9c11.8,6.1,23.4,12.5,35,18.9C675.2,34.3,679.3,37.5,679.2,45.6z"/>
	</g>
</g>
</svg>
