<?xml version="1.0" encoding="utf-8"?>
<!-- Generator: Adobe Illustrator 23.0.0, SVG Export Plug-In . SVG Version: 6.00 Build 0)  -->
<svg version="1.1" id="Cap" xmlns="http://www.w3.org/2000/svg" xmlns:xlink="http://www.w3.org/1999/xlink" x="0px" y="0px"
	 viewBox="0 0 755.3 971" style="enable-background:new 0 0 755.3 971;" xml:space="preserve">
<style type="text/css">
	.st0{fill:#002527;}
	.st1{fill:#FFFFFF;}
	.st2{font-family:'ForteMT';}
	.st3{font-size:62.6636px;}
</style>
<path id="Caps" class="st0" d="M397,679c-12.3,0-24.6,0-36.9,0c-1.2-2.9-2.8-5.6-3.7-8.6c-3.2-10.8-10-16.7-19-20.1
	c-7.7-2.9-15.6-2.8-23.6-2.4c-19.7,0.9-33.6,11.8-43.2,31.1c-3.4,0-6.8,0-10.2,0c-5.6-0.6-11.3-1.5-16.9-1.8
	c-4.6-0.2-7.7-1.9-9.3-7.4c-1.5-5-3.6-9.9-5.8-14.5c-6.4-13.5-16.5-21.3-29.5-24.1c-9.3-2-18.7-1.5-28-0.8
	c-14,1.1-25.8,7.5-34.7,20.5c-0.8,1.1-1.7,2.1-2.5,3.2c-1.7,2.6-3.8,3.2-6.5,2.3c-6.1-2-12.1-4.4-18.3-5.4
	c-8.3-1.3-13.4-5.7-14.6-15.7c-0.3-2.4-1.3-4.7-2.2-7c-7-19.1-23.7-37.3-49.1-29.7c-3.5,1-6.1,0-9-2.4c-8.5-7.1-16.6-14.7-25.5-21
	c0-1.1,0-2.1,0-3.2c2.8-8.5,5.7-17,8.4-25.5C35.3,488.2,53.8,430,72.2,371.9c2-6.3,5.2-11.7,9.3-16.5c8.4-9.8,18.5-16.5,29.3-21.9
	c34.4-17.1,71-24.2,107.7-29.9c28.5-4.5,57.1-7.3,85.8-8.9c34.2-1.9,68.5-3.5,102.8-2.2c41.2,1.6,82.3,4.2,123.2,10
	c30.5,4.3,60.9,10.2,90.4,20.6c17,6,33.5,13.4,47.7,26.1c6.3,5.6,11.6,12.3,14.7,21c13.8,38.6,27.5,77.2,41.4,115.8
	c7.3,20.4,14.8,40.8,22.3,61.2c0,1.1,0,2.1,0,3.2c-1.8,1.9-3.7,3.8-5.3,5.9c-9,10.8-17.9,21.6-26.8,32.5c-2.5,3.1-5,4.6-8.4,2.4
	c-7.2-4.8-13.1-1.8-19,3.5c-12.4,11.3-22.2,24.8-26.3,42.8c-1.8,7.8-5.1,11.8-11.9,13c-5.3,0.9-10.6,2.4-15.6,4.7
	c-6.6,3-10.9,0.7-15-5.5c-6.5-9.9-15.4-15.7-25.9-18c-10.3-2.3-20.8-2.4-31.2-1.2c-17.6,2-29.9,12.8-36.9,31.7
	c-1,2.8-2.3,5.5-3.1,8.4c-1.3,5-4.1,6.5-8.3,6.7c-5.8,0.3-11.6,1.2-17.4,1.9c-3.4,0-6.8,0-10.2,0c-2.2-3.4-4.4-6.8-6.6-10.2
	c-6.4-10.1-14.9-16.3-25.3-18.9c-10.1-2.5-20.3-3.4-30.6-1.4c-11.3,2.2-20.4,7.7-23.3,22.1C399.2,673.4,398,676.2,397,679z
	 M376.3,620.1c0.4-8.2,0.8-15.2,1-22.1c0.8-23.4,1.4-46.7,2.4-70.1c0.4-9.5,0.7-9.3,8.8-8c3.5,0.6,4,3.3,4.7,6.2
	c5.1,22.4,10.2,44.9,15.2,67.3c1.8,8.1,1.8,8,9,6.7c3.2-0.6,6.4-1.2,9.6-1.3c22.5-1.1,44.2,2.4,63.7,16.8c1.9,1.4,3.9,4.8,5.7,3.4
	c2.2-1.7,0.8-5.6,0.6-8.5c-2.3-30.6-4.7-61.1-7-91.7c-0.6-7.6-0.2-7.5,6-9.1c4-1,5.2,1.4,6.3,4.9c7.8,23.7,15.6,47.4,23.4,71
	c1,3.2,2,5.3,5.6,3.7c30-12.7,59.9-11.6,89.6,1.8c1,0.4,2,1.5,3,0.4c0.9-1.1,0.1-2.4-0.2-3.5c-1.6-6.3-3.4-12.6-5.1-18.9
	c-6.4-23.7-12.8-47.4-19.1-71.1c-0.6-2.1-1.9-4.3,0-6.5c3.5-4.1,8.2-3.6,11,1.2c12.8,22.3,25.5,44.7,38.2,67
	c3.1,5.5,3.1,5.5,7.6,1.2c10.8-10.4,22.6-18.6,36.8-21c4.2-0.7,4.4-2.8,2.9-6.9c-16.7-46.5-33.4-93-49.9-139.5
	c-1.3-3.5-2.5-4.6-5.8-3c-16.1,7.8-33,12.5-50.1,16.4c-55.5,12.6-111.8,17.2-168.2,19.2c-34.9,1.2-69.8,0.8-104.7-0.7
	c-40.4-1.8-80.7-5.3-120.7-12.2c-27.8-4.8-55.6-10.5-81.8-23c-3-1.4-3.7,0.4-4.6,3C94.5,443,78.8,492.6,62.9,542.1
	c-1.3,4.2-1,6.2,3.2,6.8c15,2.5,28.1,9.9,39.8,21.1c6.7,6.4,12.2,14.1,17.1,22.3c0.6,0.9,0.8,2.6,2.2,2.2c1-0.3,1-1.7,1.3-2.7
	c0.9-3.2,1.7-6.5,2.6-9.7c7.1-26.6,14.2-53.2,21.3-79.8c0.5-1.9,0.5-4.5,2.6-5.3c3.8-1.3,10.1,4.6,10,9.3c-0.7,23-1.3,46-2,69.1
	c-0.1,3.9-0.1,7.4,4.7,6.5c9.2-1.6,18.4-1.4,27.6-0.7c24.7,1.8,45.9,12.4,62.3,34.6c0.9,1.2,1.4,2.8,2.9,3.3
	c1.3-1.3,1.2-3.2,1.5-4.9c4.9-31.1,9.9-62.1,14.6-93.2c1-6.6,4.7-5.1,8.3-5.4c3.5-0.2,5.3,1.1,5.5,5.7c1.3,24.8,3,49.5,4.3,74.3
	c0.3,4.8,1.4,6.2,5.6,5.3c16.2-3.2,32.4-3.8,48.4,1.6C357.4,606.1,366.9,611.8,376.3,620.1z"/>
<text transform="matrix(1.6868 0 0 1 188.8696 376.4561)" class="st1 st2 st3">Pampers</text>
</svg>
