<?xml version="1.0" encoding="utf-8"?>
<!-- Generator: Adobe Illustrator 23.0.0, SVG Export Plug-In . SVG Version: 6.00 Build 0)  -->
<svg version="1.1" xmlns="http://www.w3.org/2000/svg" xmlns:xlink="http://www.w3.org/1999/xlink" x="0px" y="0px"
	 viewBox="0 0 755.3 971" style="enable-background:new 0 0 755.3 971;" xml:space="preserve">
<style type="text/css">
	.st0{fill:#002527;}
</style>
<g id="Cup_3_">
	<g id="Cup_2_">
		<g id="Cup_1_">
			<path id="Cup" class="st0" d="M323.2,380.2c31.7,10.5,60.1,6.8,89.4-9.2c0,8.5,0,14.7,0,20.9c0,125.7,0,251.3,0,377
				c0,4.7-1.7,10.5,0.5,13.8c4.2,6.2,10.6,15.1,16.3,15.2c5.9,0.1,13.5-7.9,17.5-14c2.8-4.3,1.1-11.4,1.1-17.3
				c0-121,0-241.9,0-362.9c0-6.9,0-13.9,0-23.7c31,9.5,59.5,8.3,89.3-8.5c0,8.4,0,14.4,0,20.5c0,124.5,0,248.9,0,373.4
				c0,5.3-1.8,11.6,0.6,15.6c4.1,6.8,10.1,15.9,16.7,17c10.8,1.8,17.6-6.4,17.8-17.7c0.1-5.3,0.1-10.6,0.1-15.9
				c0-121,0-241.9,0-362.9c0-6.4,0-12.8,0-16.5c29.2-1.4,57.2-2.7,87.5-4.1c0.4,6.3,1.7,16,1.8,25.7c0.1,120.4,0.3,240.7,0,361.1
				c-0.1,63.9-41.4,102.7-108.7,102.7c-82,0-164-0.2-246,0.1c-48.8,0.2-83.6-19.3-103.4-62.6c-2.1-4.6-10.5-8.6-16.4-9.3
				c-22.5-2.6-46-0.7-67.7-6.1c-52.1-12.9-88-59.5-88.3-111c-0.4-62.2-0.4-124.5,0-186.7c0.4-65.2,55-117.4,123.6-117.5
				c20.6,0,41.1,5.5,61.7,6.1c22.8,0.6,45.7-1.5,70.5-2.5c0,1.6,0,7.8,0,13.9c0,123.9,0,247.8,0,371.7c0,5.3-2,11.8,0.6,15.6
				c4.5,6.5,11.3,14.7,18.1,15.6c4.9,0.7,12.5-8.7,16.7-14.9c2.5-3.8,0.7-10.3,0.7-15.6c0-121.5,0-243.1,0-364.6
				C323.2,395.7,323.2,388.8,323.2,380.2z M196.1,750.3c0-109.8,0-217.8,0-326.5c-15.8,0-29.9-0.8-44,0.1
				c-40.4,2.6-71.7,33.1-72.1,71.4c-0.6,62.1-0.6,124.3,0,186.4c0.4,33.3,27.2,63.9,60.6,68.2C158.7,752.2,177.3,750.3,196.1,750.3z
				"/>
		</g>
	</g>
</g>
<g id="Foam_3_">
	<g id="Foam_2_">
		<g id="Foam">
			<path id="Foam_1_" class="st0" d="M548.4,342.8c-42.2,23.3-84.2,23.5-126.6,0.1c-37.5,20.8-76,23.5-116.2,6
				c-5.3-2.3-14-0.1-19.9,2.4c-59.4,24.9-128.2-1.3-151.8-58.1c-24.1-58.2,6.9-123.4,69.4-141.8c19.2-5.6,34.3-13,48.3-27.6
				c24.9-26,66.1-29.7,100.8-14.2c5.8,2.6,15,2.7,20.9,0.3c45.5-19.1,92.5-8.2,125.2,27.8c7.6,8.4,22.1,10.7,32.5,17.3
				c12.2,7.7,22.5,5.6,35.2,0c48.2-21.3,102.7-7.4,135.4,33.3c31.4,39,30.2,94.8-3,133.6c-32.6,38.2-90.1,49.8-137.2,27.7
				C557.5,347.6,553.8,345.5,548.4,342.8z M690.7,249.5c-0.7-3.9-1.3-11.6-3.7-18.8c-16.5-49.8-75.8-69.4-120.8-39.3
				c-13.4,9-23,9.4-36.1,0.1c-9-6.4-21.4-8.4-31.6-13.5c-8.2-4-17.7-8.2-22.7-14.9c-23.5-32-63.7-40.7-96.8-18.2
				c-12.8,8.7-21.7,8.4-34.1-0.8c-28-20.9-65.5-13.2-81.7,16.7c-6.2,11.3-13,16.2-26.7,16.6c-34.3,0.8-63.4,22.5-73.5,52.5
				c-9.9,29.6,0.9,63.4,26.3,82.4c27.3,20.4,63,22.2,93,3.4c11.3-7.1,20.2-7.6,31.9-0.3c30.5,19,61.9,18.2,91.4-2
				c12.2-8.3,20.8-8,32.8,0.3c28.5,19.9,63.7,20.7,91.3,1.2c14-9.9,23.8-9.4,37.6,0.1c25.7,17.6,54.4,18.7,82,4.4
				C676,305.4,690.1,282.9,690.7,249.5z"/>
		</g>
	</g>
</g>
</svg>
