<?xml version="1.0" encoding="utf-8"?>
<!-- Generator: Adobe Illustrator 23.0.0, SVG Export Plug-In . SVG Version: 6.00 Build 0)  -->
<svg version="1.1" id="Layer_1" xmlns="http://www.w3.org/2000/svg" xmlns:xlink="http://www.w3.org/1999/xlink" x="0px" y="0px"
	 viewBox="0 0 755.3 971" style="enable-background:new 0 0 755.3 971;" xml:space="preserve">
<style type="text/css">
	.st0{fill:#002527;}
</style>
<g id="Guy">
	<g>
		<path class="st0" d="M635.9,687.8c0-53.7-0.4-107.3,0.4-161c0.3-16.9-5.4-22.9-21-22c-18.1,1-36.3,1.2-54.3,0
			c-14.9-1-23.3,4.5-28.4,19.7c-11.5,34.3-24,68.2-36.5,102.1c-3.5,9.5-7.3,19.1-12.9,27.3c-7.4,10.8-17.8,17.8-31.3,13.3
			c-14.2-4.7-19-16.7-19.2-31.3c-0.2-14.4,4.7-27.6,10.2-40.4c10.4-23.9,16.7-49.3,25.1-73.9c3.8-11.1,2.3-16.5-10.4-16.5
			c-50.1,0.1-100.2-0.2-150.3-0.9c-14.2-0.2-22,8.7-29,19.5c-23.4,36.3-38.8,76.3-50.7,118.1c-3,10.4-5.3,21.1-9.7,30.8
			c-7.5,16.5-21.4,22.3-37.8,19.1c-17-3.3-24.1-16.1-22.8-33.7c3.3-46.6,19.4-89.4,36.6-131.6c8.7-21.3,9.3-21.2-12.2-21.4
			c-22.9-0.2-45.9,0.7-68.8-0.2c-14.8-0.6-20.4,4.9-20.2,20.9c0.7,45.3,0.3,90.7,0.2,136.1c-0.1,24.7-1.8,26.4-24.3,26.8
			c-37.4,0.7-37.4,0.7-37.4-39.6c0-40.9,0-81.8,0-122.7c0-9.6,0.4-18-11.2-22.9c-12.3-5.2-7-18.7-6.4-29c0.6-9.6,8.4-9.2,15.1-9.4
			c5.4-0.1,10.9-0.2,16.3-0.1c13.5,0.2,29.2,4.8,20.8-21.4c-3.4-10.6,5-22.1,13.1-30.2c20.2-20.2,40.2-40.6,61.5-59.3
			c25.3-22.2,54.2-27,84.9-13.6c27.3,12,55.6,22.2,81.2,37.6c27.7,16.7,55.6,18.7,85.5,13.1c10-1.9,23.6,0.2,29.2-5.9
			c7.1-7.8-3.6-19.6-5.6-29.9c-6.8-34.5,10.5-64.8,43.3-71.6c19.2-4,36.8-9.1,52.6-22.9c14.1-12.4,35.1,0.4,42.2,25.4
			c3.9,13.8,8.4,27.5,7.5,42.9c-1.3,21.9,7.6,29.7,28.1,30.4c19.1,0.7,33.6,10.4,42.3,28.2c9.7,20,10.5,40.5-1.6,60.1
			c-2.9,4.7-6.8,8.8-13.4,17.2c27,0,50.6-0.1,74.2,0c22.4,0.1,27,5.8,22.9,28.3c-0.5,3-1.6,7.8-3.3,8.3
			c-19.7,5.4-14.5,22.2-14.6,35.9c-0.4,42.8-0.9,85.6,0.2,128.4c0.5,18.3-6.3,23.8-22.2,22.8c-12-0.8-24.1,0.1-36.2,0.2L635.9,687.8
			z M124.3,458.2c1.1,2.2,2.2,4.3,3.4,6.5c32.9,0,65.9,1,98.7-0.5c14.1-0.6,23.9-14.3,29.7-25.5c3.7-7-12.1-10.5-18.2-16.7
			c-2.6-2.6-5.9-4.4-8.9-6.4c-25.1-16.3-45.6-14.3-67.4,6.7C149.1,434.2,136.7,446.2,124.3,458.2z M123.8,470.7v0.1
			c-30.1,0-60.3-0.3-90.4,0.1c-13.1,0.2-19.1,9-14,19c3.9,7.7,11.1,6.9,17.5,6.9c53,0.1,106.1,0.1,159.1-0.1c4.7,0,10.4-0.3,13.8-3
			c6-4.8,13.6-11.7,11.6-19.8c-1.6-6.5-10.7-3.1-16.3-3.2C178.1,470.6,151,470.7,123.8,470.7z M624,497c22.3,0,44.7,0,67,0
			c9.2,0,17-1.1,16.7-14.2c-0.3-12.6-8.5-12-16.5-12c-32.6-0.1-65.2,0-97.8,0c-10.9,0-21.7,0.1-32.6,0.1c-11.3,0-14.8,8.3-15,17.7
			c-0.3,11.3,9,8.1,14.9,8.2C581.7,497.2,602.8,496.9,624,497z M304.6,496.6c56.7,0,109.1,0,161.5-0.1c3.7,0,7.2-1.2,9.6-4.5
			c3.5-4.7,5.3-10.3,4.4-16.1c-0.8-4.8-5.3-4.5-8.9-4.5c-39.8,0.1-79.7-3.8-119.5,0.4C335.5,473.5,318.4,476.4,304.6,496.6z
			 M536.2,423.3c1.5-22.6,2.3-27.4,7.5-37.7c9.4-18.5,6-32.4-10.9-44.2c-3.5-2.4-7.1-4.6-10.3-7.5c-10.9-9.9-32.9-7.2-42.9,5.5
			c-8.8,11.2-5.8,27.4,7.4,38.4c3.8,3.1,8,5.9,12.4,7.8C516.6,392.8,529.4,404.4,536.2,423.3z"/>
		<path class="st0" d="M741.9,650.6c0,6.8-0.3,11.3,0.1,15.7c1.4,16.5-5,25.7-21.3,25.4c-15.2-0.3-22.1-5.7-24.4-24.6
			c-3.9-33.2,11.7-61.8,13.9-93.1c0.4-5,3.9-7.8,8.8-8c3.9-0.2,8.6,1.3,8.5,5.3C726.4,599.8,749.3,623.3,741.9,650.6z"/>
	</g>
</g>
<g id="Bottle_1_">
	<g id="Bottle">
		<path id="Bottle_1" class="st0" d="M342.2,653.2c33,0.2,42.6,10.7,36,35c-1.6,5.9-3.9,11.5-10.3,11.5c-23-0.1-46.1,9.9-68.9-3.7
			c-7.8-4.6-18.6-3.9-28.2-4.8c-5.8-0.6-8.9-3.2-9.8-9c-0.7-4.8,0.3-10.1,5.5-10.1C294.4,672.3,316.4,644.8,342.2,653.2z"/>
		<path id="Bottle_2" class="st0" d="M637.3,689c4.9,2.4,9.6,5,14.6,7.1c5.5,2.2,7.6,6.1,5.8,11.9c-1.4,4.7-4.5,7.9-9.4,6.8
			c-30.7-6.6-63.3,3.8-93.3-13.5c-12.9-7.4-14.6-14.6-10.8-27c3.8-12.1,7.1-21.3,23.6-18.2c25.6,4.8,48.1,14.6,68,31.8
			C635.9,687.8,637.3,689,637.3,689z"/>
	</g>
</g>
</svg>
