<?xml version="1.0" encoding="utf-8"?>
<!-- Generator: Adobe Illustrator 23.0.0, SVG Export Plug-In . SVG Version: 6.00 Build 0)  -->
<svg version="1.1" id="Like" xmlns="http://www.w3.org/2000/svg" xmlns:xlink="http://www.w3.org/1999/xlink" x="0px" y="0px"
	 viewBox="0 0 755.3 971" style="enable-background:new 0 0 755.3 971;" xml:space="preserve">
<style type="text/css">
	.st0{fill:#002527;}
</style>
<g>
	<g>
		<path class="st0" d="M512.6,0c23.1,16.4,25.9,27.2,11,51.8c-3.1,5.6-3.5,10.8-3.1,16.4c3.9,69.5,7.8,139,12.6,208.4
			c0.4,7.3,3.5,15.1,7.1,22c26.3,48.8,19.2,102.7,20.4,155.4c0.4,9.1-5.5,8.2-10.6,8.2c-52.6-0.9-104.3-5.2-154.1-24.6
			c-51.4-20.3-68.2-47.5-45.9-101c25.5-61.7,21.2-126,28.2-189c2.4-21.6,2.7-43.2,3.9-64.3c0.8-13.4,2-25.5-7.5-38
			c-11-15.1-3.9-31.1,16.1-44.9C431.4,0,471.8,0,512.6,0z"/>
		<path class="st0" d="M355.7,971c-10.6-10.4-19.2-48.3-13.3-60.9c3.9-8.2,10.2-3,15.3-1.7c43.5,10.8,87.1,16.4,132.2,12.1
			c25.9-2.6,48.6-12.9,72.6-33.7c-7.1,30.6,10.2,60.9-14.1,84.2C483.6,971,419.6,971,355.7,971z"/>
		<path class="st0" d="M100.4,673.7c0-38,0.4-76,0-114.4c0-11.2,1.2-16.8,13.3-15.1c52.6,6.9,98.8-6.9,137.7-49.2
			c20.8-22.9,44.3-42.3,69.4-59.6c6.7-4.7,12.6-9.1,20.8-1.3c32.6,31.9,73.7,41.4,114.9,48.8c43.1,7.3,87.1,9.5,130.6,9.1
			c25.5-0.4,48.2,6.9,60.4,34.5c12.2,27.2,9,54.4-5.9,79.4c-5.1,8.2-6.7,14.7-4.3,25c6.3,28.5,2.7,55.7-17.3,77.7
			c-5.5,5.6-5.9,11.2-5.5,19c2.4,31.9-7.8,57.4-32.6,75.5c-5.1,3.9-8.2,7.8-10.2,14.7c-16.5,51.8-47.1,74.7-96.9,76
			c-73.7,1.7-143.5-16.8-210.2-50.1c-48.6-24.2-98.4-41-152.6-39.7c-9.8,0.4-11.8-3.9-11.8-13.8
			C100.4,751.4,100.4,712.5,100.4,673.7z"/>
	</g>
</g>
</svg>
